solid OpenSCAD_Model
  facet normal -0.994522 -0.104528 0
    outer loop
      vertex -20 0 0
      vertex -19.563 -4.15823 0
      vertex -20 0 5
    endloop
  endfacet
  facet normal -0.994522 -0.104528 0
    outer loop
      vertex -20 0 5
      vertex -19.563 -4.15823 0
      vertex -19.563 -4.15823 5
    endloop
  endfacet
  facet normal 0 0 -1
    outer loop
      vertex -20 0 0
      vertex -19.563 4.15823 0
      vertex -19.563 -4.15823 0
    endloop
  endfacet
  facet normal 0 0 -1
    outer loop
      vertex -19.563 -4.15823 0
      vertex -19.563 4.15823 0
      vertex -18.2709 8.13473 0
    endloop
  endfacet
  facet normal 0 0 -1
    outer loop
      vertex -19.563 -4.15823 0
      vertex -18.2709 8.13473 0
      vertex -16.1803 11.7557 0
    endloop
  endfacet
  facet normal 0 0 -1
    outer loop
      vertex -19.563 -4.15823 0
      vertex -16.1803 11.7557 0
      vertex -13.3826 14.8629 0
    endloop
  endfacet
  facet normal 0 0 -1
    outer loop
      vertex -19.563 -4.15823 0
      vertex -13.3826 14.8629 0
      vertex -10 17.3205 0
    endloop
  endfacet
  facet normal 0 0 -1
    outer loop
      vertex -19.563 -4.15823 0
      vertex -10 17.3205 0
      vertex -6.18034 19.0211 0
    endloop
  endfacet
  facet normal 0 0 -1
    outer loop
      vertex -19.563 -4.15823 0
      vertex -6.18034 19.0211 0
      vertex -2.09057 19.8904 0
    endloop
  endfacet
  facet normal 0 0 -1
    outer loop
      vertex -19.563 -4.15823 0
      vertex -2.09057 19.8904 0
      vertex 2.09057 19.8904 0
    endloop
  endfacet
  facet normal 0 0 -1
    outer loop
      vertex 23.5453 9.94522 0
      vertex 2.09057 19.8904 0
      vertex 101.045 9.94522 0
    endloop
  endfacet
  facet normal 0 0 -1
    outer loop
      vertex 84.7348 3.68528 0
      vertex 109.135 4.06737 0
      vertex 85.6749 1.9482 0
    endloop
  endfacet
  facet normal 0 0 -1
    outer loop
      vertex 81.4729 5.8164 0
      vertex 105 8.66025 0
      vertex 106.691 7.43145 0
    endloop
  endfacet
  facet normal 0 0 -1
    outer loop
      vertex 83.2817 5.023 0
      vertex 106.691 7.43145 0
      vertex 108.09 5.87785 0
    endloop
  endfacet
  facet normal 0 0 -1
    outer loop
      vertex 84.7348 3.68528 0
      vertex 108.09 5.87785 0
      vertex 109.135 4.06737 0
    endloop
  endfacet
  facet normal 0 0 -1
    outer loop
      vertex 85.6749 1.9482 0
      vertex 109.135 4.06737 0
      vertex 109.781 2.07912 0
    endloop
  endfacet
  facet normal 0 0 -1
    outer loop
      vertex 86 0 0
      vertex 109.781 2.07912 0
      vertex 110 0 0
    endloop
  endfacet
  facet normal 0 0 -1
    outer loop
      vertex 85.6749 -1.9482 0
      vertex 110 0 0
      vertex 109.781 -2.07912 0
    endloop
  endfacet
  facet normal 0 0 -1
    outer loop
      vertex 84.7348 -3.68528 0
      vertex 109.781 -2.07912 0
      vertex 109.135 -4.06737 0
    endloop
  endfacet
  facet normal 0 0 -1
    outer loop
      vertex 83.2817 -5.023 0
      vertex 109.135 -4.06737 0
      vertex 108.09 -5.87785 0
    endloop
  endfacet
  facet normal 0 0 -1
    outer loop
      vertex 79.5045 -5.97951 0
      vertex 108.09 -5.87785 0
      vertex 106.691 -7.43145 0
    endloop
  endfacet
  facet normal 0 0 -1
    outer loop
      vertex 79.5045 -5.97951 0
      vertex 101.045 -9.94522 0
      vertex 23.5453 -9.94522 0
    endloop
  endfacet
  facet normal 0 0 -1
    outer loop
      vertex 79.5045 -5.97951 0
      vertex 103.09 -9.51056 0
      vertex 101.045 -9.94522 0
    endloop
  endfacet
  facet normal 0 0 -1
    outer loop
      vertex 79.5045 -5.97951 0
      vertex 105 -8.66025 0
      vertex 103.09 -9.51056 0
    endloop
  endfacet
  facet normal 0 0 -1
    outer loop
      vertex -1.125 -13.5155 0
      vertex 101.045 -9.94522 0
      vertex 2.09057 -19.8904 0
    endloop
  endfacet
  facet normal 0 0 -1
    outer loop
      vertex -19.563 -4.15823 0
      vertex 2.09057 -19.8904 0
      vertex -2.09057 -19.8904 0
    endloop
  endfacet
  facet normal 0 0 -1
    outer loop
      vertex -19.563 -4.15823 0
      vertex -2.09057 -19.8904 0
      vertex -6.18034 -19.0211 0
    endloop
  endfacet
  facet normal 0 0 -1
    outer loop
      vertex -19.563 -4.15823 0
      vertex -6.18034 -19.0211 0
      vertex -10 -17.3205 0
    endloop
  endfacet
  facet normal 0 0 -1
    outer loop
      vertex -19.563 -4.15823 0
      vertex -10 -17.3205 0
      vertex -13.3826 -14.8629 0
    endloop
  endfacet
  facet normal 0 0 -1
    outer loop
      vertex -19.563 -4.15823 0
      vertex -13.3826 -14.8629 0
      vertex -16.1803 -11.7557 0
    endloop
  endfacet
  facet normal 0 0 -1
    outer loop
      vertex -19.563 -4.15823 0
      vertex -16.1803 -11.7557 0
      vertex -18.2709 -8.13473 0
    endloop
  endfacet
  facet normal 0 0 -1
    outer loop
      vertex -19.563 -4.15823 0
      vertex -3.88377 0.957263 0
      vertex -3.88377 -0.957263 0
    endloop
  endfacet
  facet normal 0 0 -1
    outer loop
      vertex 3.54182 1.85889 0
      vertex 12.7185 2.07912 0
      vertex 4 0 0
    endloop
  endfacet
  facet normal 0 0 -1
    outer loop
      vertex -1.41842 -3.74006 0
      vertex -19.563 -4.15823 0
      vertex -2.99404 -2.65249 0
    endloop
  endfacet
  facet normal 0 0 -1
    outer loop
      vertex 85.6749 -1.9482 0
      vertex 109.781 -2.07912 0
      vertex 84.7348 -3.68528 0
    endloop
  endfacet
  facet normal 0 0 -1
    outer loop
      vertex 0.482147 -3.97083 0
      vertex -19.563 -4.15823 0
      vertex -1.41842 -3.74006 0
    endloop
  endfacet
  facet normal 0 0 -1
    outer loop
      vertex 83.2817 -5.023 0
      vertex 108.09 -5.87785 0
      vertex 81.4729 -5.8164 0
    endloop
  endfacet
  facet normal 0 0 -1
    outer loop
      vertex 14.4098 -5.87785 0
      vertex -19.563 -4.15823 0
      vertex 13.3645 -4.06737 0
    endloop
  endfacet
  facet normal 0 0 -1
    outer loop
      vertex 3.54182 -1.85889 0
      vertex 12.7185 -2.07912 0
      vertex 2.27226 -3.29194 0
    endloop
  endfacet
  facet normal 0 0 -1
    outer loop
      vertex 23.5453 9.94522 0
      vertex 101.045 9.94522 0
      vertex 103.09 9.51056 0
    endloop
  endfacet
  facet normal 0 0 -1
    outer loop
      vertex 2.27226 3.29194 0
      vertex 2.09057 19.8904 0
      vertex 3.54182 1.85889 0
    endloop
  endfacet
  facet normal 0 0 -1
    outer loop
      vertex -1.125 -13.5155 0
      vertex 2.09057 -19.8904 0
      vertex -2.875 -13.5155 0
    endloop
  endfacet
  facet normal 0 0 -1
    outer loop
      vertex 0.482147 3.97083 0
      vertex 2.09057 19.8904 0
      vertex 2.27226 3.29194 0
    endloop
  endfacet
  facet normal 0 0 -1
    outer loop
      vertex -1.41842 3.74006 0
      vertex 2.09057 19.8904 0
      vertex 0.482147 3.97083 0
    endloop
  endfacet
  facet normal 0 0 -1
    outer loop
      vertex -2.99404 2.65249 0
      vertex 2.09057 19.8904 0
      vertex -1.41842 3.74006 0
    endloop
  endfacet
  facet normal 0 0 -1
    outer loop
      vertex -0.25 12 0
      vertex 2.09057 19.8904 0
      vertex -2.99404 2.65249 0
    endloop
  endfacet
  facet normal 0 0 -1
    outer loop
      vertex -0.25 12 0
      vertex -3.88377 0.957263 0
      vertex -1.125 10.4845 0
    endloop
  endfacet
  facet normal 0 0 -1
    outer loop
      vertex -19.563 -4.15823 0
      vertex -3.75 -12 0
      vertex -2.875 -13.5155 0
    endloop
  endfacet
  facet normal 0 0 -1
    outer loop
      vertex -19.563 -4.15823 0
      vertex -2.875 -13.5155 0
      vertex 2.09057 -19.8904 0
    endloop
  endfacet
  facet normal 0 0 -1
    outer loop
      vertex -0.25 -12 0
      vertex 101.045 -9.94522 0
      vertex -1.125 -13.5155 0
    endloop
  endfacet
  facet normal 0 0 -1
    outer loop
      vertex -1.125 -10.4845 0
      vertex 101.045 -9.94522 0
      vertex -0.25 -12 0
    endloop
  endfacet
  facet normal 0 0 -1
    outer loop
      vertex 23.5453 -9.94522 0
      vertex 101.045 -9.94522 0
      vertex -1.125 -10.4845 0
    endloop
  endfacet
  facet normal 0 0 -1
    outer loop
      vertex -19.563 -4.15823 0
      vertex -1.125 -10.4845 0
      vertex -2.875 -10.4845 0
    endloop
  endfacet
  facet normal 0 0 -1
    outer loop
      vertex -19.563 -4.15823 0
      vertex -2.875 -10.4845 0
      vertex -3.75 -12 0
    endloop
  endfacet
  facet normal 0 0 -1
    outer loop
      vertex 12.5 0 0
      vertex 4 0 0
      vertex 12.7185 2.07912 0
    endloop
  endfacet
  facet normal 0 0 -1
    outer loop
      vertex -19.563 -4.15823 0
      vertex -3.75 12 0
      vertex -3.88377 0.957263 0
    endloop
  endfacet
  facet normal 0 0 -1
    outer loop
      vertex -3.75 12 0
      vertex -2.875 10.4845 0
      vertex -3.88377 0.957263 0
    endloop
  endfacet
  facet normal 0 0 -1
    outer loop
      vertex -2.875 13.5155 0
      vertex 2.09057 19.8904 0
      vertex -1.125 13.5155 0
    endloop
  endfacet
  facet normal 0 0 -1
    outer loop
      vertex -2.875 10.4845 0
      vertex -1.125 10.4845 0
      vertex -3.88377 0.957263 0
    endloop
  endfacet
  facet normal 0 0 -1
    outer loop
      vertex -1.125 13.5155 0
      vertex 2.09057 19.8904 0
      vertex -0.25 12 0
    endloop
  endfacet
  facet normal 0 0 -1
    outer loop
      vertex -3.88377 0.957263 0
      vertex -0.25 12 0
      vertex -2.99404 2.65249 0
    endloop
  endfacet
  facet normal 0 0 -1
    outer loop
      vertex -19.563 -4.15823 0
      vertex 2.09057 19.8904 0
      vertex -2.875 13.5155 0
    endloop
  endfacet
  facet normal 0 0 -1
    outer loop
      vertex -19.563 -4.15823 0
      vertex -2.875 13.5155 0
      vertex -3.75 12 0
    endloop
  endfacet
  facet normal 0 0 -1
    outer loop
      vertex 23.5453 9.94522 0
      vertex 103.09 9.51056 0
      vertex 105 8.66025 0
    endloop
  endfacet
  facet normal 0 0 -1
    outer loop
      vertex 81.4729 5.8164 0
      vertex 106.691 7.43145 0
      vertex 83.2817 5.023 0
    endloop
  endfacet
  facet normal 0 0 -1
    outer loop
      vertex -19.563 -4.15823 0
      vertex 0.482147 -3.97083 0
      vertex 13.3645 -4.06737 0
    endloop
  endfacet
  facet normal 0 0 -1
    outer loop
      vertex 79.5045 -5.97951 0
      vertex 106.691 -7.43145 0
      vertex 105 -8.66025 0
    endloop
  endfacet
  facet normal 0 0 -1
    outer loop
      vertex -19.563 -4.15823 0
      vertex 14.4098 -5.87785 0
      vertex -1.125 -10.4845 0
    endloop
  endfacet
  facet normal 0 0 -1
    outer loop
      vertex 14.4098 -5.87785 0
      vertex 15.8087 -7.43145 0
      vertex -1.125 -10.4845 0
    endloop
  endfacet
  facet normal 0 0 -1
    outer loop
      vertex 15.8087 -7.43145 0
      vertex 17.5 -8.66025 0
      vertex -1.125 -10.4845 0
    endloop
  endfacet
  facet normal 0 0 -1
    outer loop
      vertex 17.5 -8.66025 0
      vertex 19.4098 -9.51056 0
      vertex -1.125 -10.4845 0
    endloop
  endfacet
  facet normal 0 0 -1
    outer loop
      vertex 19.4098 -9.51056 0
      vertex 21.4547 -9.94522 0
      vertex -1.125 -10.4845 0
    endloop
  endfacet
  facet normal 0 0 -1
    outer loop
      vertex 21.4547 -9.94522 0
      vertex 23.5453 -9.94522 0
      vertex -1.125 -10.4845 0
    endloop
  endfacet
  facet normal 0 0 -1
    outer loop
      vertex 81.4729 -5.8164 0
      vertex 108.09 -5.87785 0
      vertex 79.5045 -5.97951 0
    endloop
  endfacet
  facet normal 0 0 -1
    outer loop
      vertex 84.7348 -3.68528 0
      vertex 109.135 -4.06737 0
      vertex 83.2817 -5.023 0
    endloop
  endfacet
  facet normal 0 0 -1
    outer loop
      vertex 13.3645 -4.06737 0
      vertex 2.27226 -3.29194 0
      vertex 12.7185 -2.07912 0
    endloop
  endfacet
  facet normal 0 0 -1
    outer loop
      vertex 13.3645 -4.06737 0
      vertex 0.482147 -3.97083 0
      vertex 2.27226 -3.29194 0
    endloop
  endfacet
  facet normal 0 0 -1
    outer loop
      vertex 23.5453 9.94522 0
      vertex 105 8.66025 0
      vertex 79.5045 5.97951 0
    endloop
  endfacet
  facet normal 0 0 -1
    outer loop
      vertex 83.2817 5.023 0
      vertex 108.09 5.87785 0
      vertex 84.7348 3.68528 0
    endloop
  endfacet
  facet normal 0 0 -1
    outer loop
      vertex 4 0 0
      vertex 12.5 0 0
      vertex 3.54182 -1.85889 0
    endloop
  endfacet
  facet normal 0 0 -1
    outer loop
      vertex 79.5045 5.97951 0
      vertex 105 8.66025 0
      vertex 81.4729 5.8164 0
    endloop
  endfacet
  facet normal 0 0 -1
    outer loop
      vertex 85.6749 1.9482 0
      vertex 109.781 2.07912 0
      vertex 86 0 0
    endloop
  endfacet
  facet normal 0 0 -1
    outer loop
      vertex 86 0 0
      vertex 110 0 0
      vertex 85.6749 -1.9482 0
    endloop
  endfacet
  facet normal 0 0 -1
    outer loop
      vertex 21.4547 9.94522 0
      vertex 2.09057 19.8904 0
      vertex 23.5453 9.94522 0
    endloop
  endfacet
  facet normal 0 0 -1
    outer loop
      vertex 15.8087 7.43145 0
      vertex 3.54182 1.85889 0
      vertex 17.5 8.66025 0
    endloop
  endfacet
  facet normal 0 0 -1
    outer loop
      vertex 19.4098 9.51056 0
      vertex 2.09057 19.8904 0
      vertex 21.4547 9.94522 0
    endloop
  endfacet
  facet normal 0 0 -1
    outer loop
      vertex 17.5 8.66025 0
      vertex 2.09057 19.8904 0
      vertex 19.4098 9.51056 0
    endloop
  endfacet
  facet normal 0 0 -1
    outer loop
      vertex 3.54182 1.85889 0
      vertex 2.09057 19.8904 0
      vertex 17.5 8.66025 0
    endloop
  endfacet
  facet normal 0 0 -1
    outer loop
      vertex 14.4098 5.87785 0
      vertex 3.54182 1.85889 0
      vertex 15.8087 7.43145 0
    endloop
  endfacet
  facet normal 0 0 -1
    outer loop
      vertex 12.7185 2.07912 0
      vertex 3.54182 1.85889 0
      vertex 13.3645 4.06737 0
    endloop
  endfacet
  facet normal 0 0 -1
    outer loop
      vertex 3.54182 1.85889 0
      vertex 14.4098 5.87785 0
      vertex 13.3645 4.06737 0
    endloop
  endfacet
  facet normal 0 0 -1
    outer loop
      vertex -2.99404 -2.65249 0
      vertex -19.563 -4.15823 0
      vertex -3.88377 -0.957263 0
    endloop
  endfacet
  facet normal 0 0 -1
    outer loop
      vertex 12.7185 -2.07912 0
      vertex 3.54182 -1.85889 0
      vertex 12.5 0 0
    endloop
  endfacet
  facet normal -0.994522 0.104528 0
    outer loop
      vertex -20 0 0
      vertex -20 0 5
      vertex -19.563 4.15823 0
    endloop
  endfacet
  facet normal -0.994522 0.104528 0
    outer loop
      vertex -19.563 4.15823 0
      vertex -20 0 5
      vertex -19.563 4.15823 5
    endloop
  endfacet
  facet normal 0 0 1
    outer loop
      vertex -19.563 4.15823 5
      vertex -20 0 5
      vertex -19.563 -4.15823 5
    endloop
  endfacet
  facet normal 0 0 1
    outer loop
      vertex -16.1803 -11.7557 5
      vertex -19.563 4.15823 5
      vertex -18.2709 -8.13473 5
    endloop
  endfacet
  facet normal 0 0 1
    outer loop
      vertex -18.2709 -8.13473 5
      vertex -19.563 4.15823 5
      vertex -19.563 -4.15823 5
    endloop
  endfacet
  facet normal 0 0 1
    outer loop
      vertex -13.3826 -14.8629 5
      vertex -19.563 4.15823 5
      vertex -16.1803 -11.7557 5
    endloop
  endfacet
  facet normal 0 0 1
    outer loop
      vertex -10 -17.3205 5
      vertex -19.563 4.15823 5
      vertex -13.3826 -14.8629 5
    endloop
  endfacet
  facet normal 0 0 1
    outer loop
      vertex -6.18034 -19.0211 5
      vertex -19.563 4.15823 5
      vertex -10 -17.3205 5
    endloop
  endfacet
  facet normal 0 0 1
    outer loop
      vertex -2.09057 -19.8904 5
      vertex -19.563 4.15823 5
      vertex -6.18034 -19.0211 5
    endloop
  endfacet
  facet normal 0 0 1
    outer loop
      vertex 2.09057 -19.8904 5
      vertex -19.563 4.15823 5
      vertex -2.09057 -19.8904 5
    endloop
  endfacet
  facet normal 0 0 1
    outer loop
      vertex -2.875 -13.5155 5
      vertex -19.563 4.15823 5
      vertex 2.09057 -19.8904 5
    endloop
  endfacet
  facet normal 0 0 1
    outer loop
      vertex 3.54182 1.85889 5
      vertex 4 0 5
      vertex 12.5 0 5
    endloop
  endfacet
  facet normal 0 0 1
    outer loop
      vertex 13.3645 4.06737 5
      vertex 14.4098 5.87785 5
      vertex -19.563 4.15823 5
    endloop
  endfacet
  facet normal 0 0 1
    outer loop
      vertex 12.5 0 5
      vertex 12.7185 2.07912 5
      vertex 3.54182 1.85889 5
    endloop
  endfacet
  facet normal 0 0 1
    outer loop
      vertex 2.27226 3.29194 5
      vertex 3.54182 1.85889 5
      vertex 12.7185 2.07912 5
    endloop
  endfacet
  facet normal 0 0 1
    outer loop
      vertex 23.5453 9.94522 5
      vertex 106.691 7.43145 5
      vertex 105 8.66025 5
    endloop
  endfacet
  facet normal 0 0 1
    outer loop
      vertex -2.09057 19.8904 5
      vertex -19.563 4.15823 5
      vertex 2.09057 19.8904 5
    endloop
  endfacet
  facet normal 0 0 1
    outer loop
      vertex -6.18034 19.0211 5
      vertex -19.563 4.15823 5
      vertex -2.09057 19.8904 5
    endloop
  endfacet
  facet normal 0 0 1
    outer loop
      vertex -10 17.3205 5
      vertex -19.563 4.15823 5
      vertex -6.18034 19.0211 5
    endloop
  endfacet
  facet normal 0 0 1
    outer loop
      vertex -13.3826 14.8629 5
      vertex -19.563 4.15823 5
      vertex -10 17.3205 5
    endloop
  endfacet
  facet normal 0 0 1
    outer loop
      vertex -16.1803 11.7557 5
      vertex -19.563 4.15823 5
      vertex -13.3826 14.8629 5
    endloop
  endfacet
  facet normal 0 0 1
    outer loop
      vertex -18.2709 8.13473 5
      vertex -19.563 4.15823 5
      vertex -16.1803 11.7557 5
    endloop
  endfacet
  facet normal 0 0 1
    outer loop
      vertex -3.88377 0.957263 5
      vertex -19.563 4.15823 5
      vertex -3.88377 -0.957263 5
    endloop
  endfacet
  facet normal 0 0 1
    outer loop
      vertex 13.3645 4.06737 5
      vertex -19.563 4.15823 5
      vertex 0.482147 3.97083 5
    endloop
  endfacet
  facet normal 0 0 1
    outer loop
      vertex 85.6749 -1.9482 5
      vertex 84.7348 -3.68528 5
      vertex 109.135 -4.06737 5
    endloop
  endfacet
  facet normal 0 0 1
    outer loop
      vertex -1.41842 3.74006 5
      vertex 0.482147 3.97083 5
      vertex -19.563 4.15823 5
    endloop
  endfacet
  facet normal 0 0 1
    outer loop
      vertex 86 0 5
      vertex 85.6749 -1.9482 5
      vertex 109.781 -2.07912 5
    endloop
  endfacet
  facet normal 0 0 1
    outer loop
      vertex 84.7348 3.68528 5
      vertex 85.6749 1.9482 5
      vertex 109.781 2.07912 5
    endloop
  endfacet
  facet normal 0 0 1
    outer loop
      vertex -2.875 13.5155 5
      vertex -1.125 13.5155 5
      vertex 2.09057 19.8904 5
    endloop
  endfacet
  facet normal 0 0 1
    outer loop
      vertex 17.5 -8.66025 5
      vertex 3.54182 -1.85889 5
      vertex 2.09057 -19.8904 5
    endloop
  endfacet
  facet normal 0 0 1
    outer loop
      vertex 3.54182 -1.85889 5
      vertex 2.27226 -3.29194 5
      vertex 2.09057 -19.8904 5
    endloop
  endfacet
  facet normal 0 0 1
    outer loop
      vertex 2.27226 -3.29194 5
      vertex 0.482147 -3.97083 5
      vertex 2.09057 -19.8904 5
    endloop
  endfacet
  facet normal 0 0 1
    outer loop
      vertex 0.482147 -3.97083 5
      vertex -1.41842 -3.74006 5
      vertex 2.09057 -19.8904 5
    endloop
  endfacet
  facet normal 0 0 1
    outer loop
      vertex -1.41842 -3.74006 5
      vertex -2.99404 -2.65249 5
      vertex 2.09057 -19.8904 5
    endloop
  endfacet
  facet normal 0 0 1
    outer loop
      vertex -3.75 -12 5
      vertex -19.563 4.15823 5
      vertex -2.875 -13.5155 5
    endloop
  endfacet
  facet normal 0 0 1
    outer loop
      vertex -1.125 -10.4845 5
      vertex -0.25 -12 5
      vertex -3.88377 -0.957263 5
    endloop
  endfacet
  facet normal 0 0 1
    outer loop
      vertex -3.88377 -0.957263 5
      vertex -19.563 4.15823 5
      vertex -3.75 -12 5
    endloop
  endfacet
  facet normal 0 0 1
    outer loop
      vertex -3.75 -12 5
      vertex -2.875 -10.4845 5
      vertex -3.88377 -0.957263 5
    endloop
  endfacet
  facet normal 0 0 1
    outer loop
      vertex -0.25 -12 5
      vertex -1.125 -13.5155 5
      vertex 2.09057 -19.8904 5
    endloop
  endfacet
  facet normal 0 0 1
    outer loop
      vertex -3.88377 -0.957263 5
      vertex -2.875 -10.4845 5
      vertex -1.125 -10.4845 5
    endloop
  endfacet
  facet normal 0 0 1
    outer loop
      vertex -2.99404 -2.65249 5
      vertex -0.25 -12 5
      vertex 2.09057 -19.8904 5
    endloop
  endfacet
  facet normal 0 0 1
    outer loop
      vertex -2.99404 -2.65249 5
      vertex -3.88377 -0.957263 5
      vertex -0.25 -12 5
    endloop
  endfacet
  facet normal 0 0 1
    outer loop
      vertex -1.125 10.4845 5
      vertex -2.875 10.4845 5
      vertex 101.045 9.94522 5
    endloop
  endfacet
  facet normal 0 0 1
    outer loop
      vertex -3.75 12 5
      vertex -19.563 4.15823 5
      vertex -2.875 10.4845 5
    endloop
  endfacet
  facet normal 0 0 1
    outer loop
      vertex 13.3645 -4.06737 5
      vertex 12.7185 -2.07912 5
      vertex 3.54182 -1.85889 5
    endloop
  endfacet
  facet normal 0 0 1
    outer loop
      vertex -2.875 13.5155 5
      vertex -19.563 4.15823 5
      vertex -3.75 12 5
    endloop
  endfacet
  facet normal 0 0 1
    outer loop
      vertex 79.5045 -5.97951 5
      vertex 103.09 -9.51056 5
      vertex 105 -8.66025 5
    endloop
  endfacet
  facet normal 0 0 1
    outer loop
      vertex 2.09057 19.8904 5
      vertex -19.563 4.15823 5
      vertex -2.875 13.5155 5
    endloop
  endfacet
  facet normal 0 0 1
    outer loop
      vertex 2.09057 19.8904 5
      vertex -1.125 13.5155 5
      vertex 101.045 9.94522 5
    endloop
  endfacet
  facet normal 0 0 1
    outer loop
      vertex 15.8087 -7.43145 5
      vertex 14.4098 -5.87785 5
      vertex 3.54182 -1.85889 5
    endloop
  endfacet
  facet normal 0 0 1
    outer loop
      vertex -1.125 13.5155 5
      vertex -0.25 12 5
      vertex 101.045 9.94522 5
    endloop
  endfacet
  facet normal 0 0 1
    outer loop
      vertex -0.25 12 5
      vertex -1.125 10.4845 5
      vertex 101.045 9.94522 5
    endloop
  endfacet
  facet normal 0 0 1
    outer loop
      vertex -1.125 -13.5155 5
      vertex -2.875 -13.5155 5
      vertex 2.09057 -19.8904 5
    endloop
  endfacet
  facet normal 0 0 1
    outer loop
      vertex 83.2817 -5.023 5
      vertex 81.4729 -5.8164 5
      vertex 106.691 -7.43145 5
    endloop
  endfacet
  facet normal 0 0 1
    outer loop
      vertex -2.875 10.4845 5
      vertex -19.563 4.15823 5
      vertex 14.4098 5.87785 5
    endloop
  endfacet
  facet normal 0 0 1
    outer loop
      vertex 79.5045 -5.97951 5
      vertex 101.045 -9.94522 5
      vertex 103.09 -9.51056 5
    endloop
  endfacet
  facet normal 0 0 1
    outer loop
      vertex -2.875 10.4845 5
      vertex 14.4098 5.87785 5
      vertex 15.8087 7.43145 5
    endloop
  endfacet
  facet normal 0 0 1
    outer loop
      vertex 79.5045 -5.97951 5
      vertex 23.5453 -9.94522 5
      vertex 101.045 -9.94522 5
    endloop
  endfacet
  facet normal 0 0 1
    outer loop
      vertex -2.875 10.4845 5
      vertex 15.8087 7.43145 5
      vertex 17.5 8.66025 5
    endloop
  endfacet
  facet normal 0 0 1
    outer loop
      vertex -2.875 10.4845 5
      vertex 17.5 8.66025 5
      vertex 19.4098 9.51056 5
    endloop
  endfacet
  facet normal 0 0 1
    outer loop
      vertex -2.875 10.4845 5
      vertex 19.4098 9.51056 5
      vertex 21.4547 9.94522 5
    endloop
  endfacet
  facet normal 0 0 1
    outer loop
      vertex -2.875 10.4845 5
      vertex 23.5453 9.94522 5
      vertex 101.045 9.94522 5
    endloop
  endfacet
  facet normal 0 0 1
    outer loop
      vertex -2.875 10.4845 5
      vertex 21.4547 9.94522 5
      vertex 23.5453 9.94522 5
    endloop
  endfacet
  facet normal 0 0 1
    outer loop
      vertex 106.691 7.43145 5
      vertex 79.5045 5.97951 5
      vertex 108.09 5.87785 5
    endloop
  endfacet
  facet normal 0 0 1
    outer loop
      vertex 23.5453 9.94522 5
      vertex 103.09 9.51056 5
      vertex 101.045 9.94522 5
    endloop
  endfacet
  facet normal 0 0 1
    outer loop
      vertex 79.5045 5.97951 5
      vertex 81.4729 5.8164 5
      vertex 108.09 5.87785 5
    endloop
  endfacet
  facet normal 0 0 1
    outer loop
      vertex 23.5453 9.94522 5
      vertex 105 8.66025 5
      vertex 103.09 9.51056 5
    endloop
  endfacet
  facet normal 0 0 1
    outer loop
      vertex 108.09 5.87785 5
      vertex 83.2817 5.023 5
      vertex 109.135 4.06737 5
    endloop
  endfacet
  facet normal 0 0 1
    outer loop
      vertex 23.5453 9.94522 5
      vertex 79.5045 5.97951 5
      vertex 106.691 7.43145 5
    endloop
  endfacet
  facet normal 0 0 1
    outer loop
      vertex 109.135 4.06737 5
      vertex 84.7348 3.68528 5
      vertex 109.781 2.07912 5
    endloop
  endfacet
  facet normal 0 0 1
    outer loop
      vertex 83.2817 5.023 5
      vertex 84.7348 3.68528 5
      vertex 109.135 4.06737 5
    endloop
  endfacet
  facet normal 0 0 1
    outer loop
      vertex 109.781 2.07912 5
      vertex 85.6749 1.9482 5
      vertex 110 0 5
    endloop
  endfacet
  facet normal 0 0 1
    outer loop
      vertex 110 0 5
      vertex 86 0 5
      vertex 109.781 -2.07912 5
    endloop
  endfacet
  facet normal 0 0 1
    outer loop
      vertex 109.781 -2.07912 5
      vertex 85.6749 -1.9482 5
      vertex 109.135 -4.06737 5
    endloop
  endfacet
  facet normal 0 0 1
    outer loop
      vertex 81.4729 5.8164 5
      vertex 83.2817 5.023 5
      vertex 108.09 5.87785 5
    endloop
  endfacet
  facet normal 0 0 1
    outer loop
      vertex 109.135 -4.06737 5
      vertex 84.7348 -3.68528 5
      vertex 108.09 -5.87785 5
    endloop
  endfacet
  facet normal 0 0 1
    outer loop
      vertex 108.09 -5.87785 5
      vertex 83.2817 -5.023 5
      vertex 106.691 -7.43145 5
    endloop
  endfacet
  facet normal 0 0 1
    outer loop
      vertex 106.691 -7.43145 5
      vertex 81.4729 -5.8164 5
      vertex 105 -8.66025 5
    endloop
  endfacet
  facet normal 0 0 1
    outer loop
      vertex 85.6749 1.9482 5
      vertex 86 0 5
      vertex 110 0 5
    endloop
  endfacet
  facet normal 0 0 1
    outer loop
      vertex 81.4729 -5.8164 5
      vertex 79.5045 -5.97951 5
      vertex 105 -8.66025 5
    endloop
  endfacet
  facet normal 0 0 1
    outer loop
      vertex 101.045 -9.94522 5
      vertex 23.5453 -9.94522 5
      vertex 2.09057 -19.8904 5
    endloop
  endfacet
  facet normal 0 0 1
    outer loop
      vertex 23.5453 -9.94522 5
      vertex 21.4547 -9.94522 5
      vertex 2.09057 -19.8904 5
    endloop
  endfacet
  facet normal 0 0 1
    outer loop
      vertex 21.4547 -9.94522 5
      vertex 19.4098 -9.51056 5
      vertex 2.09057 -19.8904 5
    endloop
  endfacet
  facet normal 0 0 1
    outer loop
      vertex 19.4098 -9.51056 5
      vertex 17.5 -8.66025 5
      vertex 2.09057 -19.8904 5
    endloop
  endfacet
  facet normal 0 0 1
    outer loop
      vertex 13.3645 -4.06737 5
      vertex 3.54182 -1.85889 5
      vertex 14.4098 -5.87785 5
    endloop
  endfacet
  facet normal 0 0 1
    outer loop
      vertex 17.5 -8.66025 5
      vertex 15.8087 -7.43145 5
      vertex 3.54182 -1.85889 5
    endloop
  endfacet
  facet normal 0 0 1
    outer loop
      vertex 12.7185 -2.07912 5
      vertex 12.5 0 5
      vertex 4 0 5
    endloop
  endfacet
  facet normal 0 0 1
    outer loop
      vertex 4 0 5
      vertex 3.54182 -1.85889 5
      vertex 12.7185 -2.07912 5
    endloop
  endfacet
  facet normal 0 0 1
    outer loop
      vertex -3.88377 0.957263 5
      vertex -2.99404 2.65249 5
      vertex -19.563 4.15823 5
    endloop
  endfacet
  facet normal 0 0 1
    outer loop
      vertex -2.99404 2.65249 5
      vertex -1.41842 3.74006 5
      vertex -19.563 4.15823 5
    endloop
  endfacet
  facet normal 0 0 1
    outer loop
      vertex 84.7348 -3.68528 5
      vertex 83.2817 -5.023 5
      vertex 108.09 -5.87785 5
    endloop
  endfacet
  facet normal 0 0 1
    outer loop
      vertex 12.7185 2.07912 5
      vertex 0.482147 3.97083 5
      vertex 2.27226 3.29194 5
    endloop
  endfacet
  facet normal 0 0 1
    outer loop
      vertex 12.7185 2.07912 5
      vertex 13.3645 4.06737 5
      vertex 0.482147 3.97083 5
    endloop
  endfacet
  facet normal -0.951057 -0.309017 0
    outer loop
      vertex -19.563 -4.15823 0
      vertex -18.2709 -8.13473 0
      vertex -19.563 -4.15823 5
    endloop
  endfacet
  facet normal -0.951057 -0.309017 0
    outer loop
      vertex -19.563 -4.15823 5
      vertex -18.2709 -8.13473 0
      vertex -18.2709 -8.13473 5
    endloop
  endfacet
  facet normal -0.866025 -0.5 0
    outer loop
      vertex -18.2709 -8.13473 0
      vertex -16.1803 -11.7557 0
      vertex -18.2709 -8.13473 5
    endloop
  endfacet
  facet normal -0.866025 -0.5 0
    outer loop
      vertex -18.2709 -8.13473 5
      vertex -16.1803 -11.7557 0
      vertex -16.1803 -11.7557 5
    endloop
  endfacet
  facet normal -0.743145 -0.669131 0
    outer loop
      vertex -16.1803 -11.7557 0
      vertex -13.3826 -14.8629 0
      vertex -16.1803 -11.7557 5
    endloop
  endfacet
  facet normal -0.743145 -0.669131 0
    outer loop
      vertex -16.1803 -11.7557 5
      vertex -13.3826 -14.8629 0
      vertex -13.3826 -14.8629 5
    endloop
  endfacet
  facet normal -0.587785 -0.809017 0
    outer loop
      vertex -13.3826 -14.8629 5
      vertex -13.3826 -14.8629 0
      vertex -10 -17.3205 0
    endloop
  endfacet
  facet normal -0.587785 -0.809017 0
    outer loop
      vertex -10 -17.3205 5
      vertex -13.3826 -14.8629 5
      vertex -10 -17.3205 0
    endloop
  endfacet
  facet normal -0.406737 -0.913545 0
    outer loop
      vertex -10 -17.3205 5
      vertex -10 -17.3205 0
      vertex -6.18034 -19.0211 0
    endloop
  endfacet
  facet normal -0.406737 -0.913545 0
    outer loop
      vertex -6.18034 -19.0211 5
      vertex -10 -17.3205 5
      vertex -6.18034 -19.0211 0
    endloop
  endfacet
  facet normal -0.207912 -0.978148 0
    outer loop
      vertex -6.18034 -19.0211 5
      vertex -6.18034 -19.0211 0
      vertex -2.09057 -19.8904 0
    endloop
  endfacet
  facet normal -0.207912 -0.978148 0
    outer loop
      vertex -2.09057 -19.8904 5
      vertex -6.18034 -19.0211 5
      vertex -2.09057 -19.8904 0
    endloop
  endfacet
  facet normal 0 -1 0
    outer loop
      vertex -2.09057 -19.8904 5
      vertex -2.09057 -19.8904 0
      vertex 2.09057 -19.8904 0
    endloop
  endfacet
  facet normal 0 -1 0
    outer loop
      vertex 2.09057 -19.8904 5
      vertex -2.09057 -19.8904 5
      vertex 2.09057 -19.8904 0
    endloop
  endfacet
  facet normal 0.099999 -0.994988 0
    outer loop
      vertex 2.09057 -19.8904 5
      vertex 2.09057 -19.8904 0
      vertex 101.045 -9.94522 0
    endloop
  endfacet
  facet normal 0.099999 -0.994988 0
    outer loop
      vertex 101.045 -9.94522 5
      vertex 2.09057 -19.8904 5
      vertex 101.045 -9.94522 0
    endloop
  endfacet
  facet normal 0.207912 -0.978148 0
    outer loop
      vertex 101.045 -9.94522 5
      vertex 101.045 -9.94522 0
      vertex 103.09 -9.51056 0
    endloop
  endfacet
  facet normal 0.207912 -0.978148 0
    outer loop
      vertex 103.09 -9.51056 5
      vertex 101.045 -9.94522 5
      vertex 103.09 -9.51056 0
    endloop
  endfacet
  facet normal 0.406737 -0.913545 0
    outer loop
      vertex 103.09 -9.51056 5
      vertex 103.09 -9.51056 0
      vertex 105 -8.66025 0
    endloop
  endfacet
  facet normal 0.406737 -0.913545 0
    outer loop
      vertex 105 -8.66025 5
      vertex 103.09 -9.51056 5
      vertex 105 -8.66025 0
    endloop
  endfacet
  facet normal 0.587785 -0.809017 0
    outer loop
      vertex 105 -8.66025 5
      vertex 105 -8.66025 0
      vertex 106.691 -7.43145 0
    endloop
  endfacet
  facet normal 0.587785 -0.809017 0
    outer loop
      vertex 106.691 -7.43145 5
      vertex 105 -8.66025 5
      vertex 106.691 -7.43145 0
    endloop
  endfacet
  facet normal 0.743145 -0.669131 0
    outer loop
      vertex 106.691 -7.43145 5
      vertex 106.691 -7.43145 0
      vertex 108.09 -5.87785 0
    endloop
  endfacet
  facet normal 0.743145 -0.669131 0
    outer loop
      vertex 108.09 -5.87785 5
      vertex 106.691 -7.43145 5
      vertex 108.09 -5.87785 0
    endloop
  endfacet
  facet normal 0.866025 -0.5 0
    outer loop
      vertex 108.09 -5.87785 5
      vertex 108.09 -5.87785 0
      vertex 109.135 -4.06737 0
    endloop
  endfacet
  facet normal 0.866025 -0.5 0
    outer loop
      vertex 109.135 -4.06737 5
      vertex 108.09 -5.87785 5
      vertex 109.135 -4.06737 0
    endloop
  endfacet
  facet normal 0.951057 -0.309017 0
    outer loop
      vertex 109.135 -4.06737 5
      vertex 109.135 -4.06737 0
      vertex 109.781 -2.07912 0
    endloop
  endfacet
  facet normal 0.951057 -0.309017 0
    outer loop
      vertex 109.781 -2.07912 5
      vertex 109.135 -4.06737 5
      vertex 109.781 -2.07912 0
    endloop
  endfacet
  facet normal 0.994522 -0.104528 0
    outer loop
      vertex 109.781 -2.07912 5
      vertex 109.781 -2.07912 0
      vertex 110 0 0
    endloop
  endfacet
  facet normal 0.994522 -0.104528 0
    outer loop
      vertex 110 0 5
      vertex 109.781 -2.07912 5
      vertex 110 0 0
    endloop
  endfacet
  facet normal 0.994522 0.104528 0
    outer loop
      vertex 110 0 0
      vertex 109.781 2.07912 0
      vertex 109.781 2.07912 5
    endloop
  endfacet
  facet normal 0.994522 0.104528 0
    outer loop
      vertex 110 0 5
      vertex 110 0 0
      vertex 109.781 2.07912 5
    endloop
  endfacet
  facet normal 0.951057 0.309017 0
    outer loop
      vertex 109.781 2.07912 0
      vertex 109.135 4.06737 0
      vertex 109.135 4.06737 5
    endloop
  endfacet
  facet normal 0.951057 0.309017 0
    outer loop
      vertex 109.781 2.07912 5
      vertex 109.781 2.07912 0
      vertex 109.135 4.06737 5
    endloop
  endfacet
  facet normal 0.866025 0.5 0
    outer loop
      vertex 109.135 4.06737 0
      vertex 108.09 5.87785 0
      vertex 108.09 5.87785 5
    endloop
  endfacet
  facet normal 0.866025 0.5 0
    outer loop
      vertex 109.135 4.06737 5
      vertex 109.135 4.06737 0
      vertex 108.09 5.87785 5
    endloop
  endfacet
  facet normal 0.743145 0.669131 0
    outer loop
      vertex 108.09 5.87785 0
      vertex 106.691 7.43145 0
      vertex 106.691 7.43145 5
    endloop
  endfacet
  facet normal 0.743145 0.669131 0
    outer loop
      vertex 108.09 5.87785 5
      vertex 108.09 5.87785 0
      vertex 106.691 7.43145 5
    endloop
  endfacet
  facet normal 0.587785 0.809017 0
    outer loop
      vertex 105 8.66025 0
      vertex 105 8.66025 5
      vertex 106.691 7.43145 0
    endloop
  endfacet
  facet normal 0.587785 0.809017 0
    outer loop
      vertex 106.691 7.43145 0
      vertex 105 8.66025 5
      vertex 106.691 7.43145 5
    endloop
  endfacet
  facet normal 0.406737 0.913545 0
    outer loop
      vertex 103.09 9.51056 0
      vertex 103.09 9.51056 5
      vertex 105 8.66025 0
    endloop
  endfacet
  facet normal 0.406737 0.913545 0
    outer loop
      vertex 105 8.66025 0
      vertex 103.09 9.51056 5
      vertex 105 8.66025 5
    endloop
  endfacet
  facet normal 0.207912 0.978148 0
    outer loop
      vertex 101.045 9.94522 0
      vertex 101.045 9.94522 5
      vertex 103.09 9.51056 0
    endloop
  endfacet
  facet normal 0.207912 0.978148 0
    outer loop
      vertex 103.09 9.51056 0
      vertex 101.045 9.94522 5
      vertex 103.09 9.51056 5
    endloop
  endfacet
  facet normal 0.099999 0.994988 0
    outer loop
      vertex 2.09057 19.8904 0
      vertex 2.09057 19.8904 5
      vertex 101.045 9.94522 0
    endloop
  endfacet
  facet normal 0.099999 0.994988 0
    outer loop
      vertex 101.045 9.94522 0
      vertex 2.09057 19.8904 5
      vertex 101.045 9.94522 5
    endloop
  endfacet
  facet normal 0 1 0
    outer loop
      vertex -2.09057 19.8904 0
      vertex -2.09057 19.8904 5
      vertex 2.09057 19.8904 0
    endloop
  endfacet
  facet normal 0 1 0
    outer loop
      vertex 2.09057 19.8904 0
      vertex -2.09057 19.8904 5
      vertex 2.09057 19.8904 5
    endloop
  endfacet
  facet normal -0.207912 0.978148 0
    outer loop
      vertex -6.18034 19.0211 0
      vertex -6.18034 19.0211 5
      vertex -2.09057 19.8904 0
    endloop
  endfacet
  facet normal -0.207912 0.978148 0
    outer loop
      vertex -2.09057 19.8904 0
      vertex -6.18034 19.0211 5
      vertex -2.09057 19.8904 5
    endloop
  endfacet
  facet normal -0.406737 0.913545 0
    outer loop
      vertex -10 17.3205 0
      vertex -10 17.3205 5
      vertex -6.18034 19.0211 0
    endloop
  endfacet
  facet normal -0.406737 0.913545 0
    outer loop
      vertex -6.18034 19.0211 0
      vertex -10 17.3205 5
      vertex -6.18034 19.0211 5
    endloop
  endfacet
  facet normal -0.587785 0.809017 0
    outer loop
      vertex -13.3826 14.8629 0
      vertex -13.3826 14.8629 5
      vertex -10 17.3205 0
    endloop
  endfacet
  facet normal -0.587785 0.809017 0
    outer loop
      vertex -10 17.3205 0
      vertex -13.3826 14.8629 5
      vertex -10 17.3205 5
    endloop
  endfacet
  facet normal -0.743145 0.669131 0
    outer loop
      vertex -16.1803 11.7557 0
      vertex -16.1803 11.7557 5
      vertex -13.3826 14.8629 0
    endloop
  endfacet
  facet normal -0.743145 0.669131 0
    outer loop
      vertex -13.3826 14.8629 0
      vertex -16.1803 11.7557 5
      vertex -13.3826 14.8629 5
    endloop
  endfacet
  facet normal -0.866025 0.5 0
    outer loop
      vertex -18.2709 8.13473 0
      vertex -18.2709 8.13473 5
      vertex -16.1803 11.7557 0
    endloop
  endfacet
  facet normal -0.866025 0.5 0
    outer loop
      vertex -16.1803 11.7557 0
      vertex -18.2709 8.13473 5
      vertex -16.1803 11.7557 5
    endloop
  endfacet
  facet normal -0.951057 0.309017 0
    outer loop
      vertex -19.563 4.15823 0
      vertex -19.563 4.15823 5
      vertex -18.2709 8.13473 0
    endloop
  endfacet
  facet normal -0.951057 0.309017 0
    outer loop
      vertex -18.2709 8.13473 0
      vertex -19.563 4.15823 5
      vertex -18.2709 8.13473 5
    endloop
  endfacet
  facet normal 1 0 0
    outer loop
      vertex -3.88377 0.957263 0
      vertex -3.88377 0.957263 5
      vertex -3.88377 -0.957263 5
    endloop
  endfacet
  facet normal 1 0 0
    outer loop
      vertex -3.88377 -0.957263 0
      vertex -3.88377 0.957263 0
      vertex -3.88377 -0.957263 5
    endloop
  endfacet
  facet normal 0.885456 -0.464723 0
    outer loop
      vertex -2.99404 2.65249 0
      vertex -2.99404 2.65249 5
      vertex -3.88377 0.957263 5
    endloop
  endfacet
  facet normal 0.885456 -0.464723 0
    outer loop
      vertex -3.88377 0.957263 0
      vertex -2.99404 2.65249 0
      vertex -3.88377 0.957263 5
    endloop
  endfacet
  facet normal 0.568065 -0.822984 0
    outer loop
      vertex -1.41842 3.74006 0
      vertex -1.41842 3.74006 5
      vertex -2.99404 2.65249 5
    endloop
  endfacet
  facet normal 0.568065 -0.822984 0
    outer loop
      vertex -2.99404 2.65249 0
      vertex -1.41842 3.74006 0
      vertex -2.99404 2.65249 5
    endloop
  endfacet
  facet normal 0.120536 -0.992709 0
    outer loop
      vertex 0.482147 3.97083 0
      vertex 0.482147 3.97083 5
      vertex -1.41842 3.74006 5
    endloop
  endfacet
  facet normal 0.120536 -0.992709 0
    outer loop
      vertex -1.41842 3.74006 0
      vertex 0.482147 3.97083 0
      vertex -1.41842 3.74006 5
    endloop
  endfacet
  facet normal -0.354605 -0.935016 0
    outer loop
      vertex 2.27226 3.29194 0
      vertex 2.27226 3.29194 5
      vertex 0.482147 3.97083 5
    endloop
  endfacet
  facet normal -0.354605 -0.935016 0
    outer loop
      vertex 0.482147 3.97083 0
      vertex 2.27226 3.29194 0
      vertex 0.482147 3.97083 5
    endloop
  endfacet
  facet normal -0.748511 -0.663123 0
    outer loop
      vertex 3.54182 1.85889 5
      vertex 2.27226 3.29194 5
      vertex 3.54182 1.85889 0
    endloop
  endfacet
  facet normal -0.748511 -0.663123 0
    outer loop
      vertex 3.54182 1.85889 0
      vertex 2.27226 3.29194 5
      vertex 2.27226 3.29194 0
    endloop
  endfacet
  facet normal -0.970942 -0.239316 0
    outer loop
      vertex 4 0 5
      vertex 3.54182 1.85889 5
      vertex 4 0 0
    endloop
  endfacet
  facet normal -0.970942 -0.239316 0
    outer loop
      vertex 4 0 0
      vertex 3.54182 1.85889 5
      vertex 3.54182 1.85889 0
    endloop
  endfacet
  facet normal -0.970942 0.239316 0
    outer loop
      vertex 4 0 5
      vertex 4 0 0
      vertex 3.54182 -1.85889 5
    endloop
  endfacet
  facet normal -0.970942 0.239316 0
    outer loop
      vertex 3.54182 -1.85889 5
      vertex 4 0 0
      vertex 3.54182 -1.85889 0
    endloop
  endfacet
  facet normal -0.748511 0.663123 0
    outer loop
      vertex 3.54182 -1.85889 5
      vertex 3.54182 -1.85889 0
      vertex 2.27226 -3.29194 5
    endloop
  endfacet
  facet normal -0.748511 0.663123 0
    outer loop
      vertex 2.27226 -3.29194 5
      vertex 3.54182 -1.85889 0
      vertex 2.27226 -3.29194 0
    endloop
  endfacet
  facet normal -0.354605 0.935016 0
    outer loop
      vertex 2.27226 -3.29194 5
      vertex 2.27226 -3.29194 0
      vertex 0.482147 -3.97083 5
    endloop
  endfacet
  facet normal -0.354605 0.935016 0
    outer loop
      vertex 0.482147 -3.97083 5
      vertex 2.27226 -3.29194 0
      vertex 0.482147 -3.97083 0
    endloop
  endfacet
  facet normal 0.120536 0.992709 0
    outer loop
      vertex 0.482147 -3.97083 5
      vertex 0.482147 -3.97083 0
      vertex -1.41842 -3.74006 5
    endloop
  endfacet
  facet normal 0.120536 0.992709 0
    outer loop
      vertex -1.41842 -3.74006 5
      vertex 0.482147 -3.97083 0
      vertex -1.41842 -3.74006 0
    endloop
  endfacet
  facet normal 0.568065 0.822984 0
    outer loop
      vertex -1.41842 -3.74006 5
      vertex -1.41842 -3.74006 0
      vertex -2.99404 -2.65249 5
    endloop
  endfacet
  facet normal 0.568065 0.822984 0
    outer loop
      vertex -2.99404 -2.65249 5
      vertex -1.41842 -3.74006 0
      vertex -2.99404 -2.65249 0
    endloop
  endfacet
  facet normal 0.885456 0.464723 0
    outer loop
      vertex -3.88377 -0.957263 5
      vertex -2.99404 -2.65249 5
      vertex -2.99404 -2.65249 0
    endloop
  endfacet
  facet normal 0.885456 0.464723 0
    outer loop
      vertex -3.88377 -0.957263 0
      vertex -3.88377 -0.957263 5
      vertex -2.99404 -2.65249 0
    endloop
  endfacet
  facet normal 0.866025 0.5 0
    outer loop
      vertex -3.75 -12 5
      vertex -2.875 -13.5155 5
      vertex -2.875 -13.5155 0
    endloop
  endfacet
  facet normal 0.866025 0.5 0
    outer loop
      vertex -3.75 -12 0
      vertex -3.75 -12 5
      vertex -2.875 -13.5155 0
    endloop
  endfacet
  facet normal 0.866025 -0.5 0
    outer loop
      vertex -2.875 -10.4845 0
      vertex -2.875 -10.4845 5
      vertex -3.75 -12 5
    endloop
  endfacet
  facet normal 0.866025 -0.5 0
    outer loop
      vertex -3.75 -12 0
      vertex -2.875 -10.4845 0
      vertex -3.75 -12 5
    endloop
  endfacet
  facet normal 0 -1 0
    outer loop
      vertex -1.125 -10.4845 0
      vertex -1.125 -10.4845 5
      vertex -2.875 -10.4845 5
    endloop
  endfacet
  facet normal 0 -1 0
    outer loop
      vertex -2.875 -10.4845 0
      vertex -1.125 -10.4845 0
      vertex -2.875 -10.4845 5
    endloop
  endfacet
  facet normal -0.866025 -0.5 0
    outer loop
      vertex -0.25 -12 5
      vertex -1.125 -10.4845 5
      vertex -0.25 -12 0
    endloop
  endfacet
  facet normal -0.866025 -0.5 0
    outer loop
      vertex -0.25 -12 0
      vertex -1.125 -10.4845 5
      vertex -1.125 -10.4845 0
    endloop
  endfacet
  facet normal -0.866025 0.5 0
    outer loop
      vertex -0.25 -12 5
      vertex -0.25 -12 0
      vertex -1.125 -13.5155 5
    endloop
  endfacet
  facet normal -0.866025 0.5 0
    outer loop
      vertex -1.125 -13.5155 5
      vertex -0.25 -12 0
      vertex -1.125 -13.5155 0
    endloop
  endfacet
  facet normal 0 1 0
    outer loop
      vertex -1.125 -13.5155 5
      vertex -1.125 -13.5155 0
      vertex -2.875 -13.5155 5
    endloop
  endfacet
  facet normal 0 1 0
    outer loop
      vertex -2.875 -13.5155 5
      vertex -1.125 -13.5155 0
      vertex -2.875 -13.5155 0
    endloop
  endfacet
  facet normal 0.866025 0.5 0
    outer loop
      vertex -3.75 12 5
      vertex -2.875 10.4845 5
      vertex -2.875 10.4845 0
    endloop
  endfacet
  facet normal 0.866025 0.5 0
    outer loop
      vertex -3.75 12 0
      vertex -3.75 12 5
      vertex -2.875 10.4845 0
    endloop
  endfacet
  facet normal 0.866025 -0.5 0
    outer loop
      vertex -2.875 13.5155 0
      vertex -2.875 13.5155 5
      vertex -3.75 12 5
    endloop
  endfacet
  facet normal 0.866025 -0.5 0
    outer loop
      vertex -3.75 12 0
      vertex -2.875 13.5155 0
      vertex -3.75 12 5
    endloop
  endfacet
  facet normal 0 -1 0
    outer loop
      vertex -1.125 13.5155 0
      vertex -1.125 13.5155 5
      vertex -2.875 13.5155 5
    endloop
  endfacet
  facet normal 0 -1 0
    outer loop
      vertex -2.875 13.5155 0
      vertex -1.125 13.5155 0
      vertex -2.875 13.5155 5
    endloop
  endfacet
  facet normal -0.866025 -0.5 0
    outer loop
      vertex -0.25 12 5
      vertex -1.125 13.5155 5
      vertex -0.25 12 0
    endloop
  endfacet
  facet normal -0.866025 -0.5 0
    outer loop
      vertex -0.25 12 0
      vertex -1.125 13.5155 5
      vertex -1.125 13.5155 0
    endloop
  endfacet
  facet normal -0.866025 0.5 0
    outer loop
      vertex -0.25 12 5
      vertex -0.25 12 0
      vertex -1.125 10.4845 5
    endloop
  endfacet
  facet normal -0.866025 0.5 0
    outer loop
      vertex -1.125 10.4845 5
      vertex -0.25 12 0
      vertex -1.125 10.4845 0
    endloop
  endfacet
  facet normal 0 1 0
    outer loop
      vertex -1.125 10.4845 5
      vertex -1.125 10.4845 0
      vertex -2.875 10.4845 5
    endloop
  endfacet
  facet normal 0 1 0
    outer loop
      vertex -2.875 10.4845 5
      vertex -1.125 10.4845 0
      vertex -2.875 10.4845 0
    endloop
  endfacet
  facet normal 0.994522 0.104528 0
    outer loop
      vertex 12.5 0 5
      vertex 12.7185 -2.07912 5
      vertex 12.7185 -2.07912 0
    endloop
  endfacet
  facet normal 0.994522 0.104528 0
    outer loop
      vertex 12.5 0 0
      vertex 12.5 0 5
      vertex 12.7185 -2.07912 0
    endloop
  endfacet
  facet normal 0.994522 -0.104528 0
    outer loop
      vertex 12.7185 2.07912 0
      vertex 12.7185 2.07912 5
      vertex 12.5 0 5
    endloop
  endfacet
  facet normal 0.994522 -0.104528 0
    outer loop
      vertex 12.5 0 0
      vertex 12.7185 2.07912 0
      vertex 12.5 0 5
    endloop
  endfacet
  facet normal 0.951057 -0.309017 0
    outer loop
      vertex 13.3645 4.06737 0
      vertex 13.3645 4.06737 5
      vertex 12.7185 2.07912 5
    endloop
  endfacet
  facet normal 0.951057 -0.309017 0
    outer loop
      vertex 12.7185 2.07912 0
      vertex 13.3645 4.06737 0
      vertex 12.7185 2.07912 5
    endloop
  endfacet
  facet normal 0.866025 -0.5 0
    outer loop
      vertex 14.4098 5.87785 0
      vertex 14.4098 5.87785 5
      vertex 13.3645 4.06737 5
    endloop
  endfacet
  facet normal 0.866025 -0.5 0
    outer loop
      vertex 13.3645 4.06737 0
      vertex 14.4098 5.87785 0
      vertex 13.3645 4.06737 5
    endloop
  endfacet
  facet normal 0.743145 -0.669131 0
    outer loop
      vertex 15.8087 7.43145 0
      vertex 15.8087 7.43145 5
      vertex 14.4098 5.87785 5
    endloop
  endfacet
  facet normal 0.743145 -0.669131 0
    outer loop
      vertex 14.4098 5.87785 0
      vertex 15.8087 7.43145 0
      vertex 14.4098 5.87785 5
    endloop
  endfacet
  facet normal 0.587785 -0.809017 0
    outer loop
      vertex 17.5 8.66025 0
      vertex 17.5 8.66025 5
      vertex 15.8087 7.43145 5
    endloop
  endfacet
  facet normal 0.587785 -0.809017 0
    outer loop
      vertex 15.8087 7.43145 0
      vertex 17.5 8.66025 0
      vertex 15.8087 7.43145 5
    endloop
  endfacet
  facet normal 0.406737 -0.913545 0
    outer loop
      vertex 19.4098 9.51056 0
      vertex 19.4098 9.51056 5
      vertex 17.5 8.66025 5
    endloop
  endfacet
  facet normal 0.406737 -0.913545 0
    outer loop
      vertex 17.5 8.66025 0
      vertex 19.4098 9.51056 0
      vertex 17.5 8.66025 5
    endloop
  endfacet
  facet normal 0.207912 -0.978148 0
    outer loop
      vertex 21.4547 9.94522 0
      vertex 21.4547 9.94522 5
      vertex 19.4098 9.51056 5
    endloop
  endfacet
  facet normal 0.207912 -0.978148 0
    outer loop
      vertex 19.4098 9.51056 0
      vertex 21.4547 9.94522 0
      vertex 19.4098 9.51056 5
    endloop
  endfacet
  facet normal 0 -1 0
    outer loop
      vertex 23.5453 9.94522 0
      vertex 23.5453 9.94522 5
      vertex 21.4547 9.94522 5
    endloop
  endfacet
  facet normal 0 -1 0
    outer loop
      vertex 21.4547 9.94522 0
      vertex 23.5453 9.94522 0
      vertex 21.4547 9.94522 5
    endloop
  endfacet
  facet normal -0.0706906 -0.997498 0
    outer loop
      vertex 79.5045 5.97951 0
      vertex 79.5045 5.97951 5
      vertex 23.5453 9.94522 5
    endloop
  endfacet
  facet normal -0.0706906 -0.997498 0
    outer loop
      vertex 23.5453 9.94522 0
      vertex 79.5045 5.97951 0
      vertex 23.5453 9.94522 5
    endloop
  endfacet
  facet normal -0.0825792 -0.996585 0
    outer loop
      vertex 81.4729 5.8164 0
      vertex 81.4729 5.8164 5
      vertex 79.5045 5.97951 5
    endloop
  endfacet
  facet normal -0.0825792 -0.996585 0
    outer loop
      vertex 79.5045 5.97951 0
      vertex 81.4729 5.8164 0
      vertex 79.5045 5.97951 5
    endloop
  endfacet
  facet normal -0.401696 -0.915773 0
    outer loop
      vertex 83.2817 5.023 0
      vertex 83.2817 5.023 5
      vertex 81.4729 5.8164 5
    endloop
  endfacet
  facet normal -0.401696 -0.915773 0
    outer loop
      vertex 81.4729 5.8164 0
      vertex 83.2817 5.023 0
      vertex 81.4729 5.8164 5
    endloop
  endfacet
  facet normal -0.677282 -0.735724 0
    outer loop
      vertex 84.7348 3.68528 0
      vertex 84.7348 3.68528 5
      vertex 83.2817 5.023 5
    endloop
  endfacet
  facet normal -0.677282 -0.735724 0
    outer loop
      vertex 83.2817 5.023 0
      vertex 84.7348 3.68528 0
      vertex 83.2817 5.023 5
    endloop
  endfacet
  facet normal -0.879474 -0.475947 0
    outer loop
      vertex 85.6749 1.9482 5
      vertex 84.7348 3.68528 5
      vertex 85.6749 1.9482 0
    endloop
  endfacet
  facet normal -0.879474 -0.475947 0
    outer loop
      vertex 85.6749 1.9482 0
      vertex 84.7348 3.68528 5
      vertex 84.7348 3.68528 0
    endloop
  endfacet
  facet normal -0.986361 -0.164595 0
    outer loop
      vertex 86 0 5
      vertex 85.6749 1.9482 5
      vertex 86 0 0
    endloop
  endfacet
  facet normal -0.986361 -0.164595 0
    outer loop
      vertex 86 0 0
      vertex 85.6749 1.9482 5
      vertex 85.6749 1.9482 0
    endloop
  endfacet
  facet normal -0.986361 0.164595 0
    outer loop
      vertex 86 0 5
      vertex 86 0 0
      vertex 85.6749 -1.9482 5
    endloop
  endfacet
  facet normal -0.986361 0.164595 0
    outer loop
      vertex 85.6749 -1.9482 5
      vertex 86 0 0
      vertex 85.6749 -1.9482 0
    endloop
  endfacet
  facet normal -0.879474 0.475947 0
    outer loop
      vertex 85.6749 -1.9482 5
      vertex 85.6749 -1.9482 0
      vertex 84.7348 -3.68528 5
    endloop
  endfacet
  facet normal -0.879474 0.475947 0
    outer loop
      vertex 84.7348 -3.68528 5
      vertex 85.6749 -1.9482 0
      vertex 84.7348 -3.68528 0
    endloop
  endfacet
  facet normal -0.677282 0.735724 0
    outer loop
      vertex 84.7348 -3.68528 5
      vertex 84.7348 -3.68528 0
      vertex 83.2817 -5.023 5
    endloop
  endfacet
  facet normal -0.677282 0.735724 0
    outer loop
      vertex 83.2817 -5.023 5
      vertex 84.7348 -3.68528 0
      vertex 83.2817 -5.023 0
    endloop
  endfacet
  facet normal -0.401696 0.915773 0
    outer loop
      vertex 83.2817 -5.023 5
      vertex 83.2817 -5.023 0
      vertex 81.4729 -5.8164 5
    endloop
  endfacet
  facet normal -0.401696 0.915773 0
    outer loop
      vertex 81.4729 -5.8164 5
      vertex 83.2817 -5.023 0
      vertex 81.4729 -5.8164 0
    endloop
  endfacet
  facet normal -0.0825792 0.996585 0
    outer loop
      vertex 81.4729 -5.8164 5
      vertex 81.4729 -5.8164 0
      vertex 79.5045 -5.97951 5
    endloop
  endfacet
  facet normal -0.0825792 0.996585 0
    outer loop
      vertex 79.5045 -5.97951 5
      vertex 81.4729 -5.8164 0
      vertex 79.5045 -5.97951 0
    endloop
  endfacet
  facet normal -0.0706906 0.997498 0
    outer loop
      vertex 79.5045 -5.97951 5
      vertex 79.5045 -5.97951 0
      vertex 23.5453 -9.94522 5
    endloop
  endfacet
  facet normal -0.0706906 0.997498 0
    outer loop
      vertex 23.5453 -9.94522 5
      vertex 79.5045 -5.97951 0
      vertex 23.5453 -9.94522 0
    endloop
  endfacet
  facet normal 0 1 0
    outer loop
      vertex 23.5453 -9.94522 5
      vertex 23.5453 -9.94522 0
      vertex 21.4547 -9.94522 5
    endloop
  endfacet
  facet normal 0 1 0
    outer loop
      vertex 21.4547 -9.94522 5
      vertex 23.5453 -9.94522 0
      vertex 21.4547 -9.94522 0
    endloop
  endfacet
  facet normal 0.207912 0.978148 0
    outer loop
      vertex 21.4547 -9.94522 5
      vertex 21.4547 -9.94522 0
      vertex 19.4098 -9.51056 5
    endloop
  endfacet
  facet normal 0.207912 0.978148 0
    outer loop
      vertex 19.4098 -9.51056 5
      vertex 21.4547 -9.94522 0
      vertex 19.4098 -9.51056 0
    endloop
  endfacet
  facet normal 0.406737 0.913545 0
    outer loop
      vertex 19.4098 -9.51056 5
      vertex 19.4098 -9.51056 0
      vertex 17.5 -8.66025 5
    endloop
  endfacet
  facet normal 0.406737 0.913545 0
    outer loop
      vertex 17.5 -8.66025 5
      vertex 19.4098 -9.51056 0
      vertex 17.5 -8.66025 0
    endloop
  endfacet
  facet normal 0.587785 0.809017 0
    outer loop
      vertex 17.5 -8.66025 5
      vertex 17.5 -8.66025 0
      vertex 15.8087 -7.43145 5
    endloop
  endfacet
  facet normal 0.587785 0.809017 0
    outer loop
      vertex 15.8087 -7.43145 5
      vertex 17.5 -8.66025 0
      vertex 15.8087 -7.43145 0
    endloop
  endfacet
  facet normal 0.743145 0.669131 0
    outer loop
      vertex 14.4098 -5.87785 5
      vertex 15.8087 -7.43145 5
      vertex 15.8087 -7.43145 0
    endloop
  endfacet
  facet normal 0.743145 0.669131 0
    outer loop
      vertex 14.4098 -5.87785 0
      vertex 14.4098 -5.87785 5
      vertex 15.8087 -7.43145 0
    endloop
  endfacet
  facet normal 0.866025 0.5 0
    outer loop
      vertex 13.3645 -4.06737 5
      vertex 14.4098 -5.87785 5
      vertex 14.4098 -5.87785 0
    endloop
  endfacet
  facet normal 0.866025 0.5 0
    outer loop
      vertex 13.3645 -4.06737 0
      vertex 13.3645 -4.06737 5
      vertex 14.4098 -5.87785 0
    endloop
  endfacet
  facet normal 0.951057 0.309017 0
    outer loop
      vertex 12.7185 -2.07912 5
      vertex 13.3645 -4.06737 5
      vertex 13.3645 -4.06737 0
    endloop
  endfacet
  facet normal 0.951057 0.309017 0
    outer loop
      vertex 12.7185 -2.07912 0
      vertex 12.7185 -2.07912 5
      vertex 13.3645 -4.06737 0
    endloop
  endfacet
endsolid OpenSCAD_Model
