<?xml version="1.0" encoding="UTF-8" standalone="no"?>
<!-- Created with Inkscape (http://www.inkscape.org/) -->

<svg
   xmlns:dc="http://purl.org/dc/elements/1.1/"
   xmlns:cc="http://creativecommons.org/ns#"
   xmlns:rdf="http://www.w3.org/1999/02/22-rdf-syntax-ns#"
   xmlns:svg="http://www.w3.org/2000/svg"
   xmlns="http://www.w3.org/2000/svg"
   xmlns:sodipodi="http://sodipodi.sourceforge.net/DTD/sodipodi-0.dtd"
   xmlns:inkscape="http://www.inkscape.org/namespaces/inkscape"
   width="744.09448819"
   height="1052.3622047"
   id="svg6602"
   version="1.1"
   inkscape:version="0.48.3.1 r9886"
   sodipodi:docname="center_hub_render.svg">
  <defs
     id="defs6604" />
  <sodipodi:namedview
     id="base"
     pagecolor="#ffffff"
     bordercolor="#666666"
     borderopacity="1.0"
     inkscape:pageopacity="0.0"
     inkscape:pageshadow="2"
     inkscape:zoom="0.35"
     inkscape:cx="366.42857"
     inkscape:cy="160"
     inkscape:document-units="px"
     inkscape:current-layer="layer1"
     showgrid="false"
     inkscape:window-width="1920"
     inkscape:window-height="1006"
     inkscape:window-x="1920"
     inkscape:window-y="25"
     inkscape:window-maximized="1" />
  <metadata
     id="metadata6607">
    <rdf:RDF>
      <cc:Work
         rdf:about="">
        <dc:format>image/svg+xml</dc:format>
        <dc:type
           rdf:resource="http://purl.org/dc/dcmitype/StillImage" />
        <dc:title></dc:title>
      </cc:Work>
    </rdf:RDF>
  </metadata>
  <g
     inkscape:label="Layer 1"
     inkscape:groupmode="layer"
     id="layer1">
    <path
       style="fill:#cccccc;fill-opacity:1;stroke:none"
       d="M 67.312604,768.89348 C 30.015704,768.89348 0,798.90908 0,836.20598 l 0,148.8438 c 0,37.29682 30.015704,67.31242 67.312604,67.31242 l 148.812396,0 c 37.2969,0 67.3126,-30.0156 67.3126,-67.31242 l 0,-148.8438 c 0,-37.2969 -30.0157,-67.3125 -67.3126,-67.3125 l -148.812396,0 z m 34.406196,10.6563 c 3.1311,0 5.6562,2.5252 5.6562,5.6562 1e-4,3.1311 -2.5251,5.6562 -5.6562,5.6562 -3.130996,1e-4 -5.656196,-2.5251 -5.656196,-5.6562 0,-3.131 2.5252,-5.6562 5.656196,-5.6562 z m 80,0 c 3.1311,0 5.6562,2.5252 5.6562,5.6562 0,3.1311 -2.5251,5.6562 -5.6562,5.6562 -3.131,1e-4 -5.6562,-2.5251 -5.6562,-5.6562 -1e-4,-3.131 2.5252,-5.6562 5.6562,-5.6562 z m -37.7188,20 c 3.1312,0 5.6876,2.5252 5.6876,5.6562 -1e-4,3.1311 -2.5563,5.6562 -5.6876,5.6562 -3.1311,1e-4 -5.6562,-2.5251 -5.6562,-5.6562 0,-3.131 2.5249,-5.6562 5.6562,-5.6562 z m -94.749996,8.3124 c 2.4462,0 4.4376,1.9913 4.4376,4.4376 0,2.4461 -1.9913,4.4374 -4.4376,4.4374 -2.4461,0 -4.4062,-1.9914 -4.4062,-4.4374 0,-2.4462 1.9601,-4.4376 4.4062,-4.4376 z m 184.937596,0 c 2.4461,0 4.4062,1.9913 4.4062,4.4376 0,2.4461 -1.9601,4.4374 -4.4062,4.4374 -2.4462,0 -4.4376,-1.9914 -4.4376,-4.4374 0,-2.4462 1.9913,-4.4376 4.4376,-4.4376 z m -152.468796,5.0626 c 9.7846,0 17.7188,7.903 17.7188,17.6874 0,9.7846 -7.9342,17.7188 -17.7188,17.7188 -9.7846,0 -17.7188,-7.9341 -17.7188,-17.7188 0,-9.7845 7.9342,-17.6874 17.7188,-17.6874 z m 59.999996,0 c 9.7846,0 17.7188,7.903 17.7188,17.6874 0,9.7846 -7.9342,17.7188 -17.7188,17.7188 -9.7846,0 -17.7188,-7.9341 -17.7188,-17.7188 0,-9.7845 7.9342,-17.6874 17.7188,-17.6874 z m 60,0 c 9.7846,0 17.7188,7.903 17.7188,17.6874 0,9.7846 -7.9342,17.7188 -17.7188,17.7188 -9.7846,0 -17.7188,-7.9341 -17.7188,-17.7188 0,-9.7845 7.9342,-17.6874 17.7188,-17.6874 z m -100,40 c 5.853,0 11.0552,2.8435 14.2812,7.2187 7.7261,-3.9452 16.4484,-6.1875 25.7188,-6.1875 9.2704,0 18.0239,2.2423 25.75,6.1875 3.2259,-4.3753 8.3971,-7.2187 14.25,-7.2187 9.7846,0 17.7188,7.9341 17.7188,17.7187 0,5.8374 -2.8322,10.9911 -7.1876,14.2187 3.9532,7.7321 6.1876,16.501 6.1876,25.7813 0,9.2756 -2.2382,18.0207 -6.1876,25.75 4.3601,3.2273 7.1876,8.409 7.1876,14.25 0,9.7846 -7.9342,17.7187 -17.7188,17.7187 -5.8529,0 -11.0241,-2.8435 -14.25,-7.2187 -7.7261,3.9452 -16.4796,6.1875 -25.75,6.1875 -9.2704,0 -17.9926,-2.2423 -25.7188,-6.1875 -3.2258,4.3752 -8.4282,7.2187 -14.2812,7.2187 -9.784596,0 -17.687496,-7.9341 -17.687496,-17.7187 0,-5.841 2.8275,-11.0227 7.1875,-14.25 -3.9493,-7.7293 -6.1875,-16.4744 -6.1875,-25.75 0,-9.2803 2.2344,-18.0492 6.1875,-25.7813 -4.3554,-3.2278 -7.1875,-8.3813 -7.1875,-14.2187 0,-9.7847 7.9029,-17.7187 17.687496,-17.7187 z m -53.999996,8.8437 c 4.8923,0 8.875,3.9515 8.875,8.8437 0,4.8924 -3.9827,8.8752 -8.875,8.875 -4.8923,0 -8.8438,-3.9826 -8.8438,-8.875 0,-4.8922 3.9515,-8.8437 8.8438,-8.8437 z m 185.999996,0 c 4.8923,0 8.875,3.9515 8.875,8.8437 0,4.8924 -3.9827,8.8752 -8.875,8.875 -4.8923,0 -8.8438,-3.9826 -8.8438,-8.875 0,-4.8922 3.9515,-8.8437 8.8438,-8.8437 z m -217.437496,3.1875 c 3.1311,0 5.6875,2.5565 5.6875,5.6875 0,3.1311 -2.5564,5.6563 -5.6875,5.6563 -3.131,10e-5 -5.6563,-2.5252 -5.6563,-5.6563 10e-5,-3.131 2.5253,-5.6875 5.6563,-5.6875 z m 250.874996,0 c 3.131,0 5.6563,2.5564 5.6563,5.6875 -10e-5,3.131 -2.5253,5.6563 -5.6563,5.6563 -3.1311,2e-4 -5.6875,-2.5253 -5.6875,-5.6563 0,-3.1311 2.5564,-5.6875 5.6875,-5.6875 z m -199.437496,16.8125 c 4.8923,0 8.875,3.9515 8.875,8.8437 0,4.8924 -3.9827,8.8752 -8.875,8.875 -4.8923,0 -8.8438,-3.9826 -8.8438,-8.875 0,-4.8922 3.9515,-8.8437 8.8438,-8.8437 z m 145.999996,0 c 4.8923,0 8.875,3.9515 8.875,8.8437 0,4.8924 -3.9827,8.8752 -8.875,8.875 -4.8923,0 -8.8438,-3.9826 -8.8438,-8.875 0,-4.8922 3.9515,-8.8437 8.8438,-8.8437 z m -145.999996,20 c 4.8923,0 8.875,3.9515 8.875,8.8437 0,4.8924 -3.9827,8.8752 -8.875,8.875 -4.8923,0 -8.8438,-3.9826 -8.8438,-8.875 0,-4.8922 3.9515,-8.8437 8.8438,-8.8437 z m 145.999996,0 c 4.8923,0 8.875,3.9515 8.875,8.8437 0,4.8924 -3.9827,8.8752 -8.875,8.875 -4.8923,0 -8.8438,-3.9826 -8.8438,-8.875 0,-4.8922 3.9515,-8.8437 8.8438,-8.8437 z m 33.4375,0.9063 c 3.131,-1e-4 5.6563,2.5561 5.6563,5.6874 -1e-4,3.131 -2.5253,5.6563 -5.6563,5.6563 -3.1311,0 -5.6875,-2.5256 -5.6875,-5.6563 0,-3.1311 2.5564,-5.6873 5.6875,-5.6874 z m -210.874996,0.0624 c 3.1311,0 5.6875,2.5565 5.6875,5.6876 0,3.1311 -2.5564,5.6562 -5.6875,5.6562 -3.131,0 -5.6563,-2.5249 -5.6563,-5.6562 10e-5,-3.1311 2.5253,-5.6876 5.6563,-5.6876 z m 31.4375,19.0313 c 4.8923,0 8.875,3.9515 8.875,8.8437 0,4.8924 -3.9827,8.8752 -8.875,8.875 -4.8923,0 -8.8438,-3.9826 -8.8438,-8.875 0,-4.8922 3.9515,-8.8437 8.8438,-8.8437 z m 145.999996,0 c 4.8923,0 8.875,3.9515 8.875,8.8437 0,4.8924 -3.9827,8.8752 -8.875,8.875 -4.8923,0 -8.8438,-3.9826 -8.8438,-8.875 0,-4.8922 3.9515,-8.8437 8.8438,-8.8437 z m -165.999996,20 c 4.8923,0 8.875,3.9516 8.875,8.8437 0,4.8923 -3.9827,8.875 -8.875,8.875 -4.8923,0 -8.8438,-3.9827 -8.8438,-8.875 0,-4.8922 3.9515,-8.8437 8.8438,-8.8437 z m 185.999996,0 c 4.8923,0 8.875,3.9516 8.875,8.8437 0,4.8923 -3.9827,8.875 -8.875,8.875 -4.8923,0 -8.8438,-3.9827 -8.8438,-8.875 0,-4.8922 3.9515,-8.8437 8.8438,-8.8437 z m -217.437496,3.1875 c 3.1311,0 5.6875,2.5565 5.6875,5.6875 0,3.1311 -2.5564,5.6563 -5.6875,5.6563 -3.131,-1e-4 -5.6563,-2.5252 -5.6563,-5.6563 10e-5,-3.131 2.5253,-5.6875 5.6563,-5.6875 z m 250.874996,0 c 3.131,0 5.6563,2.5564 5.6563,5.6875 -10e-5,3.131 -2.5253,5.6563 -5.6563,5.6563 -3.1311,-1e-4 -5.6875,-2.5253 -5.6875,-5.6563 0,-3.1311 2.5564,-5.6875 5.6875,-5.6875 z m -185.437496,27.9688 c 9.7846,0 17.7188,7.903 17.7188,17.6874 0,9.78462 -7.9342,17.71882 -17.7188,17.71882 -9.7846,0 -17.7188,-7.9342 -17.7188,-17.71882 0,-9.7845 7.9342,-17.6874 17.7188,-17.6874 z m 59.999996,0 c 9.7846,0 17.7188,7.903 17.7188,17.6874 0,9.78462 -7.9342,17.71882 -17.7188,17.71882 -9.7846,0 -17.7188,-7.9342 -17.7188,-17.71882 0,-9.7845 7.9342,-17.6874 17.7188,-17.6874 z m 60,0 c 9.7846,0 17.7188,7.903 17.7188,17.6874 0,9.78462 -7.9342,17.71882 -17.7188,17.71882 -9.7846,0 -17.7188,-7.9342 -17.7188,-17.71882 0,-9.7845 7.9342,-17.6874 17.7188,-17.6874 z M 144,1010.3935 c 3.1312,0 5.6876,2.5564 5.6876,5.6875 -1e-4,3.131 -2.5563,5.6562 -5.6876,5.6562 -3.1309,10e-5 -5.6562,-2.5252 -5.6562,-5.6562 0,-3.1311 2.5249,-5.6875 5.6562,-5.6875 z m -94.749996,3 c 2.4462,0 4.4376,1.96 4.4376,4.4063 0,2.4461 -1.9913,4.4374 -4.4376,4.4374 -2.4461,0 -4.4062,-1.9913 -4.4062,-4.4374 0,-2.4462 1.9601,-4.4063 4.4062,-4.4063 z m 184.937596,0 c 2.4461,0 4.4062,1.96 4.4062,4.4063 0,2.4461 -1.9601,4.4374 -4.4062,4.4374 -2.4462,0 -4.4376,-1.9913 -4.4376,-4.4374 0,-2.4462 1.9913,-4.4063 4.4376,-4.4063 z m -132.4688,17 c 3.1311,0 5.6562,2.5564 5.6562,5.6875 1e-4,3.131 -2.5251,5.6562 -5.6562,5.6562 -3.130996,10e-5 -5.655996,-2.5252 -5.656196,-5.6562 -10e-5,-3.1311 2.5252,-5.6875 5.656196,-5.6875 z m 80,0 c 3.1311,0 5.6562,2.5564 5.6562,5.6875 1e-4,3.131 -2.5251,5.6562 -5.6562,5.6562 -3.131,10e-5 -5.6562,-2.5252 -5.6562,-5.6562 -1e-4,-3.1311 2.5252,-5.6875 5.6562,-5.6875 z"
       id="rect6501"
       inkscape:connector-curvature="0" />
  </g>
</svg>
